<svg width="361" height="224" viewBox="0 0 361 224" fill="none" xmlns="http://www.w3.org/2000/svg">
<g clip-path="url(#clip0_286_53)">
<rect width="360.66" height="224" fill="url(#paint0_linear_286_53)"/>
<g opacity="0.2">
<rect x="16" y="16" width="70.16" height="16" rx="8" fill="white"/>
<rect x="145.24" y="-11.0898" width="70.17" height="16" rx="8" transform="rotate(90 145.24 -11.0898)" fill="white"/>
<rect x="188.33" y="16" width="70.16" height="16" rx="8" fill="white"/>
<rect x="290.42" y="-6.47021" width="70.17" height="16" rx="8" transform="rotate(45 290.42 -6.47021)" fill="white"/>
</g>
<g filter="url(#filter0_dd_286_53)">
<path d="M181.43 140C182.23 139.933 182.913 139.617 183.48 139.05C184.047 138.483 184.33 137.8 184.33 137C184.33 136.067 184.03 135.317 183.43 134.75C182.83 134.183 182.063 133.933 181.13 134C178.397 134.2 175.497 133.45 172.43 131.75C169.363 130.05 167.43 126.967 166.63 122.5C166.497 121.767 166.147 121.167 165.58 120.7C165.013 120.233 164.363 120 163.63 120C162.697 120 161.93 120.35 161.33 121.05C160.73 121.75 160.53 122.567 160.73 123.5C161.863 129.567 164.53 133.9 168.73 136.5C172.93 139.1 177.163 140.267 181.43 140ZM180.33 152C171.197 152 163.58 148.867 157.48 142.6C151.38 136.333 148.33 128.533 148.33 119.2C148.33 112.533 150.98 105.283 156.28 97.45C161.58 89.6167 169.597 81.1333 180.33 72C191.063 81.1333 199.08 89.6167 204.38 97.45C209.68 105.283 212.33 112.533 212.33 119.2C212.33 128.533 209.28 136.333 203.18 142.6C197.08 148.867 189.463 152 180.33 152ZM180.33 144C187.263 144 192.997 141.65 197.53 136.95C202.063 132.25 204.33 126.333 204.33 119.2C204.33 114.333 202.313 108.833 198.28 102.7C194.247 96.5667 188.263 89.8667 180.33 82.6C172.397 89.8667 166.413 96.5667 162.38 102.7C158.347 108.833 156.33 114.333 156.33 119.2C156.33 126.333 158.597 132.25 163.13 136.95C167.663 141.65 173.397 144 180.33 144Z" fill="white"/>
</g>
</g>
<defs>
<filter id="filter0_dd_286_53" x="140.33" y="72" width="80" height="98" filterUnits="userSpaceOnUse" color-interpolation-filters="sRGB">
<feFlood flood-opacity="0" result="BackgroundImageFix"/>
<feColorMatrix in="SourceAlpha" type="matrix" values="0 0 0 0 0 0 0 0 0 0 0 0 0 0 0 0 0 0 127 0" result="hardAlpha"/>
<feOffset dy="10"/>
<feGaussianBlur stdDeviation="4"/>
<feComposite in2="hardAlpha" operator="out"/>
<feColorMatrix type="matrix" values="0 0 0 0 0 0 0 0 0 0 0 0 0 0 0 0 0 0 0.04 0"/>
<feBlend mode="normal" in2="BackgroundImageFix" result="effect1_dropShadow_286_53"/>
<feColorMatrix in="SourceAlpha" type="matrix" values="0 0 0 0 0 0 0 0 0 0 0 0 0 0 0 0 0 0 127 0" result="hardAlpha"/>
<feOffset dy="4"/>
<feGaussianBlur stdDeviation="1.5"/>
<feComposite in2="hardAlpha" operator="out"/>
<feColorMatrix type="matrix" values="0 0 0 0 0 0 0 0 0 0 0 0 0 0 0 0 0 0 0.1 0"/>
<feBlend mode="normal" in2="effect1_dropShadow_286_53" result="effect2_dropShadow_286_53"/>
<feBlend mode="normal" in="SourceGraphic" in2="effect2_dropShadow_286_53" result="shape"/>
</filter>
<linearGradient id="paint0_linear_286_53" x1="79.9344" y1="-49.6459" x2="280.726" y2="273.646" gradientUnits="userSpaceOnUse">
<stop stop-color="#34D399"/>
<stop offset="1" stop-color="#0D9488"/>
</linearGradient>
<clipPath id="clip0_286_53">
<rect width="360.66" height="224" fill="white"/>
</clipPath>
</defs>
</svg>
